<svg xmlns="http://www.w3.org/2000/svg" xmlns:xlink="http://www.w3.org/1999/xlink" width="1280" height="584" viewBox="0 0 1280 584"><defs><filter id="a" x="-6.516" y="38.5" width="533" height="533" filterUnits="userSpaceOnUse"><feOffset dy="13" input="SourceAlpha"/><feGaussianBlur stdDeviation="10" result="b"/><feFlood flood-opacity="0.161"/><feComposite operator="in" in2="b"/><feComposite in="SourceGraphic"/></filter><clipPath id="c"><rect width="305.746" height="285.363" fill="none"/></clipPath><clipPath id="d"><rect width="304.932" height="284.604" fill="none"/></clipPath><linearGradient id="e" x1="0.007" y1="-0.771" x2="1.882" y2="1.237" gradientUnits="objectBoundingBox"><stop offset="0" stop-color="#ffde59"/><stop offset="0.502" stop-color="#ff5757"/><stop offset="0.984" stop-color="#ff1616"/><stop offset="1" stop-color="#ff1616"/></linearGradient><clipPath id="g"><rect width="1280" height="584"/></clipPath></defs><g id="f" clip-path="url(#g)"><g transform="translate(23.484 55.5)"><g transform="translate(0 0)"><g transform="translate(0 0)"><g transform="matrix(1, 0, 0, 1, -23.48, -55.5)" filter="url(#a)"><circle cx="236.5" cy="236.5" r="236.5" transform="translate(23.48 55.5)" fill="#fff"/></g><g transform="translate(83.948 92.784)" opacity="0.349" style="isolation:isolate"><g transform="translate(0)"><g clip-path="url(#c)"><g transform="translate(0.472 0.414)"><g clip-path="url(#d)"><path d="M169.7,279.285c-30.965,0-57.869,14.456-69.7,21.923,11.85,7.463,38.816,21.937,69.7,21.937,30.963,0,57.869-14.458,69.7-21.924C227.547,293.757,200.583,279.285,169.7,279.285Zm19.723,53.139a153.693,153.693,0,0,0,2.354,16.784,154.934,154.934,0,0,0,22.369-8.5c-1.476-4.321-2.833-8.82-4.021-13.477A137.852,137.852,0,0,1,189.423,332.424Zm94.716,8.314a154.52,154.52,0,0,0,22.378,8.5,153.968,153.968,0,0,0,2.355-16.785,138.109,138.109,0,0,1-20.708-5.193C286.974,331.918,285.615,336.417,284.139,340.738Zm-25.244-39.5c11.85,7.463,38.814,21.935,69.7,21.935,30.963,0,57.868-14.456,69.7-21.922-11.85-7.463-38.815-21.935-69.7-21.935C297.63,279.314,270.725,293.772,258.895,301.238ZM141.481,266.782c1.574,1.343,3.2,2.644,4.861,3.885a124.444,124.444,0,0,1,14.36-1.988,123.762,123.762,0,0,1-17.252-17.591c-19.5-24.469-26.83-54.432-29.543-75.262q-.328-2.526-.582-4.942c-6.923-.313-12.651-.206-16.509-.032C98.691,187.258,107.1,237.37,141.481,266.782Zm78.981,56.592c7.1,28.675,21.521,51.686,28.684,61.888,7.161-10.2,21.572-33.195,28.677-61.859a160.559,160.559,0,0,1-28.7-15.43A160.282,160.282,0,0,1,220.462,323.374Zm28.681-30.1c11.249-12.1,43.836-51.052,43.836-96.308,0-45.343-32.573-84.23-43.829-96.31-11.247,12.1-43.836,51.052-43.836,96.31C205.313,242.306,237.887,281.193,249.142,293.273ZM337.429,268.7a124.618,124.618,0,0,1,14.5,2c1.679-1.256,3.316-2.564,4.884-3.907,34.382-29.414,42.792-79.525,44.667-95.934-3.862-.172-9.593-.278-16.523.034q-.249,2.366-.567,4.827c-2.712,20.829-10.042,50.795-29.545,75.26A123.965,123.965,0,0,1,337.429,268.7Zm-33.491-71.731c0,31.068-13.894,58.834-25.551,76.657-1.711,2.617-3.419,5.09-5.1,7.423,12.4-5.586,28.213-10.838,45.8-12.293a119.6,119.6,0,0,0,27.188-24.619c28.28-35.473,29.34-84.434,28.78-101.167-13.164,2.55-46.269,10.716-73.354,32.02A112.314,112.314,0,0,1,303.938,196.965Zm22.873-49.935A194.75,194.75,0,0,0,315.338,111.9a194.9,194.9,0,0,0-30.112,19.713,159.047,159.047,0,0,1,13.594,31.793A164.151,164.151,0,0,1,326.811,147.03ZM178.96,268.7c17.665,1.426,33.554,6.693,46.008,12.3-1.666-2.32-3.363-4.779-5.063-7.38-11.655-17.823-25.549-45.589-25.549-76.657a112.226,112.226,0,0,1,2.217-21.881c-27.08-21.288-60.161-29.451-73.328-32-.544,16.747.555,65.762,28.773,101.167A119.3,119.3,0,0,0,178.96,268.7Zm20.484-105.2a164.3,164.3,0,0,0-27.983-16.375A194.77,194.77,0,0,1,182.953,111.9a194.886,194.886,0,0,1,30.112,19.713A158.838,158.838,0,0,0,199.444,163.5Z" transform="translate(-96.68 -100.68)" fill="url(#e)"/></g></g></g></g></g></g></g><text transform="translate(570 149)" fill="#fff" font-size="48" font-family="RocknRollOne-Regular, RocknRoll One" letter-spacing="0.19em"><tspan x="0" y="0">······ Escuela ······ </tspan></text><text transform="translate(557 409)" fill="#fff" font-size="48" font-family="RocknRollOne-Regular, RocknRoll One" letter-spacing="0.19em"><tspan x="0" y="0">··························</tspan></text><text transform="translate(881.613 266.737)" fill="#fff" font-size="109" font-family="RocknRollOne-Regular, RocknRoll One" letter-spacing="0.02em"><tspan x="-347.111" y="0">FloreSiendo</tspan><tspan font-size="35" letter-spacing="0.558em"><tspan x="-332.658" y="48">ALQUIMIA DE AMOR</tspan></tspan></text></g></g></svg>